HIERARCHY
ROOT Hips
{
	OFFSET 0.00000 0.00000 0.00000
	CHANNELS 6 Xposition Yposition Zposition Zrotation Yrotation Xrotation 
	JOINT LHipJoint
	{
		OFFSET 0 0 0
		CHANNELS 3 Zrotation Yrotation Xrotation
		JOINT LeftUpLeg
		{
			OFFSET 1.73240 -1.89999 0.57994
			CHANNELS 3 Zrotation Yrotation Xrotation
			JOINT LeftLeg
			{
				OFFSET 2.43106 -6.67930 0.00000
				CHANNELS 3 Zrotation Yrotation Xrotation
				JOINT LeftFoot
				{
					OFFSET 2.78854 -7.66147 0.00000
					CHANNELS 3 Zrotation Yrotation Xrotation
					JOINT LeftToeBase
					{
						OFFSET 0.17314 -0.47571 2.01064
						CHANNELS 3 Zrotation Yrotation Xrotation
						End Site
						{
							OFFSET 0.00000 -0.00000 1.04147
						}
					}
				}
			}
		}
	}
	JOINT RHipJoint
	{
		OFFSET 0 0 0
		CHANNELS 3 Zrotation Yrotation Xrotation
		JOINT RightUpLeg
		{
			OFFSET -1.57078 -1.89998 0.57994
			CHANNELS 3 Zrotation Yrotation Xrotation
			JOINT RightLeg
			{
				OFFSET -2.50166 -6.87326 0.00000
				CHANNELS 3 Zrotation Yrotation Xrotation
				JOINT RightFoot
				{
					OFFSET -2.77304 -7.61886 0.00000
					CHANNELS 3 Zrotation Yrotation Xrotation
					JOINT RightToeBase
					{
						OFFSET -0.23513 -0.64602 2.11039
						CHANNELS 3 Zrotation Yrotation Xrotation
						End Site
						{
							OFFSET -0.00000 -0.00000 1.10597
						}
					}
				}
			}
		}
	}
	JOINT LowerBack
	{
		OFFSET 0 0 0
		CHANNELS 3 Zrotation Yrotation Xrotation
		JOINT Spine
		{
			OFFSET -0.00908 2.00015 -0.35323
			CHANNELS 3 Zrotation Yrotation Xrotation
			JOINT Spine1
			{
				OFFSET 0.05647 2.02258 0.04270
				CHANNELS 3 Zrotation Yrotation Xrotation
				JOINT Neck
				{
					OFFSET 0 0 0
					CHANNELS 3 Zrotation Yrotation Xrotation
					JOINT Neck1
					{
						OFFSET -0.02074 1.73711 0.13117
						CHANNELS 3 Zrotation Yrotation Xrotation
						JOINT Head
						{
							OFFSET -0.02359 1.73615 -0.24320
							CHANNELS 3 Zrotation Yrotation Xrotation
							End Site
							{
								OFFSET -0.00579 1.75982 -0.09688
							}
						}
					}
				}
				JOINT LeftShoulder
				{
					OFFSET 0 0 0
					CHANNELS 3 Zrotation Yrotation Xrotation
					JOINT LeftArm
					{
						OFFSET 3.20537 1.11432 -0.27680
						CHANNELS 3 Zrotation Yrotation Xrotation
						JOINT LeftForeArm
						{
							OFFSET 5.05923 -0.00000 -0.00000
							CHANNELS 3 Zrotation Yrotation Xrotation
							JOINT LeftHand
							{
								OFFSET 3.51996 -0.00000 0.00000
								CHANNELS 3 Zrotation Yrotation Xrotation
								JOINT LeftFingerBase
								{
									OFFSET 0 0 0
									CHANNELS 3 Zrotation Yrotation Xrotation
									JOINT LeftHandIndex1
									{
										OFFSET 0.65238 -0.00000 0.00000
										CHANNELS 3 Zrotation Yrotation Xrotation
										End Site
										{
											OFFSET 0.52596 -0.00000 0.00000
										}
									}
								}
								JOINT LThumb
								{
									OFFSET 0 0 0
									CHANNELS 3 Zrotation Yrotation Xrotation
									End Site
									{
										OFFSET 0.53399 -0.00000 0.53399
									}
								}
							}
						}
					}
				}
				JOINT RightShoulder
				{
					OFFSET 0 0 0
					CHANNELS 3 Zrotation Yrotation Xrotation
					JOINT RightArm
					{
						OFFSET -2.96983 1.42602 -0.37449
						CHANNELS 3 Zrotation Yrotation Xrotation
						JOINT RightForeArm
						{
							OFFSET -5.40867 -0.00000 0.00000
							CHANNELS 3 Zrotation Yrotation Xrotation
							JOINT RightHand
							{
								OFFSET -3.12964 -0.00000 0.00000
								CHANNELS 3 Zrotation Yrotation Xrotation
								JOINT RightFingerBase
								{
									OFFSET 0 0 0
									CHANNELS 3 Zrotation Yrotation Xrotation
									JOINT RightHandIndex1
									{
										OFFSET -0.83271 -0.00000 0.00000
										CHANNELS 3 Zrotation Yrotation Xrotation
										End Site
										{
											OFFSET -0.67135 -0.00000 0.00000
										}
									}
								}
								JOINT RThumb
								{
									OFFSET 0 0 0
									CHANNELS 3 Zrotation Yrotation Xrotation
									End Site
									{
										OFFSET -0.68160 -0.00000 0.68160
									}
								}
							}
						}
					}
				}
			}
		}
	}
}
MOTION
Frames: 6
Frame Time: .0083333
2.2287 17.6234 -24.8011 0 0 0 0 0 0 -21 0 0 0 0 0 0 0 0 0 0 0 0 0 0 21 0 0 0 0 0 0 0 0 0 0 0 0 0 0 0 0 0 0 0 0 0 0 -16 0 0 21 0 0 11 0 0 0 -8 0 0 0 0 0 0 0 0 0 0 0 0 0 0 0 0 0 0 0 0 8 0 0 0 0 0 0 0 0 0 0 0 0 0 0 0 0 0
2.2287 17.6234 -24.8011 3.7851 -1.6384 -5.2966 0.0000 0.0000 0.0000 -30.7451 -1.9023 2.0379 1.5091 7.7586 21.9831 0.7190 -1.8971 -15.4863 0.0003 -0.1156 -0.3176 0.0000 0.0000 0.0000 15.8511 3.9967 -28.3900 -7.1379 -15.4470 49.3941 -0.1302 -5.9644 -11.4483 -0.0062 -0.5088 1.3981 -5.2909 -0.6245 18.4272 1.2617 -1.8308 0.0432 4.8925 -0.5654 -10.1189 -1.4807 0.1899 -13.7057 -4.5824 1.8193 24.5674 -1.1348 0.1601 10.1309 0.0000 0.0000 0.0000 -86.5626 0.8841 26.2264 27.5248 -38.6750 -9.8253 -0.0000 0.0000 -10.7055 25.6338 49.1868 19.9594 -7.1250 0.0000 -0.0000 -41.9986 79.6478 -34.5748 0.0000 0.0000 0.0000 85.3359 -1.6614 19.8704 -20.6949 31.4704 -5.8898 0.0000 -0.0000 -3.1530 -11.4570 8.4060 -1.6970 7.1250 -0.0000 -0.0000 11.1170 -21.4656 6.3966
2.2347 17.6290 -24.6778 3.7469 -1.4887 -5.2177 0.0000 0.0000 0.0000 -30.7636 -1.6837 2.7613 1.4186 7.5323 21.3023 0.7183 -1.8914 -15.4800 0.0013 -0.2315 -0.6362 0.0000 0.0000 0.0000 15.9787 3.9020 -28.4902 -6.5382 -14.9303 47.1051 -0.1492 -6.0081 -11.8467 -0.0409 -1.3046 3.5874 -5.2551 -0.6811 18.5312 1.3303 -1.9000 -0.1067 4.9747 -0.5859 -10.3357 -1.6444 0.3254 -12.9902 -4.3908 1.9556 24.1728 -1.0174 0.2484 9.8502 -0.0000 -0.0000 0.0000 -86.5466 0.9593 25.8350 27.2407 -38.4077 -9.6483 -0.0000 0.0000 -9.2910 22.0955 48.3496 16.8749 -7.1250 0.0000 -0.0000 -41.9913 77.6560 -33.0169 -0.0000 -0.0000 0.0000 85.2745 -1.9608 19.9929 -20.7885 31.5806 -5.9388 0.0000 -0.0000 -3.4793 -11.8581 8.5644 -1.7910 7.1250 -0.0000 -0.0000 10.8211 -21.2920 6.2635
2.2421 17.6297 -24.5459 4.0105 -1.2354 -5.1370 0.0000 0.0000 0.0000 -31.1271 -1.5588 3.3184 1.3793 7.4317 21.0009 0.7411 -1.9843 -15.7105 0.0045 -0.4325 -1.1885 0.0000 0.0000 0.0000 15.7187 3.7181 -28.6098 -5.9627 -14.3921 44.8320 -0.1540 -6.1272 -12.0592 -0.0459 -1.3833 3.8042 -5.4052 -0.7063 18.4181 1.2317 -1.9704 -0.1185 4.9654 -0.6167 -10.2753 -1.7099 0.2791 -12.7036 -4.1949 1.8313 23.8696 -0.9498 0.2178 9.6819 -0.0000 0.0000 0.0000 -86.4109 0.8125 26.3066 27.4585 -38.6129 -9.7839 -0.0000 0.0000 -9.3938 22.8825 47.6722 17.3294 -7.1250 0.0000 -0.0000 -38.6996 77.5469 -30.2153 -0.0000 0.0000 0.0000 85.3800 -1.9248 19.4026 -20.9117 31.7251 -6.0034 0.0000 -0.0000 -2.2570 -12.0697 8.8286 -1.8797 7.1250 -0.0000 -0.0000 10.6565 -21.0187 6.2320
2.2397 17.6209 -24.4413 3.5688 -1.2089 -4.8475 0.0000 0.0000 0.0000 -30.6378 -1.4874 3.6365 1.3126 7.2571 20.4794 0.7441 -2.0102 -15.7382 0.0041 -0.4126 -1.1336 0.0000 0.0000 0.0000 16.1994 4.2686 -28.6395 -5.3937 -13.8139 42.4971 -0.1976 -5.9997 -12.6832 -0.1927 -2.8270 7.7975 -4.9060 -0.7530 18.1362 1.3088 -1.8948 0.2174 4.7234 -0.6312 -9.7623 -1.6903 0.1360 -13.7785 -4.1005 1.6433 23.9066 -0.9445 0.1297 9.8967 -0.0000 -0.0000 0.0000 -86.2383 -0.2028 26.5054 27.5091 -38.6604 -9.8155 -0.0000 0.0000 -9.1816 23.2038 46.7595 17.3428 -7.1250 0.0000 -0.0000 -35.2241 77.0546 -27.0451 -0.0000 -0.0000 0.0000 85.5942 -0.9095 18.8744 -20.7145 31.4936 -5.9001 0.0000 -0.0000 -1.6555 -12.1098 8.3747 -1.7899 7.1250 -0.0000 -0.0000 10.6507 -21.4728 6.1169
2.2428 17.6280 -24.3159 3.9177 -1.1020 -4.7856 0.0000 0.0000 0.0000 -30.9832 -0.9694 4.2422 1.2303 7.0344 19.8173 0.7379 -2.2959 -15.6117 0.0019 -0.2800 -0.7694 0.0000 0.0000 0.0000 15.8483 4.1792 -28.6826 -4.8505 -13.2135 40.1730 -0.1791 -6.0475 -12.4163 -0.1417 -2.4260 6.6844 -5.3048 -0.7437 18.1883 1.3237 -1.9667 0.2513 4.9877 -0.6476 -9.7328 -2.0056 0.0906 -14.0944 -4.0229 1.6548 24.0090 -0.8641 0.1092 9.9929 -0.0000 0.0000 0.0000 -86.3719 -0.4072 26.3420 27.3012 -38.4649 -9.6859 -0.0000 0.0000 -8.6877 22.4494 41.9798 15.4488 -7.1250 0.0000 -0.0000 -24.1071 72.9943 -16.2559 -0.0000 0.0000 0.0000 85.4173 -0.7071 18.8109 -20.5208 31.2647 -5.7992 0.0000 -0.0000 -1.5963 -12.0841 8.9451 -1.9066 7.1250 -0.0000 -0.0000 10.6406 -20.9012 6.2512
